<mxfile host="app.diagrams.net" modified="2022-08-23T04:08:52.538Z" agent="5.0 (Windows NT 10.0; Win64; x64) AppleWebKit/537.36 (KHTML, like Gecko) Chrome/104.0.0.0 Safari/537.36" etag="4LAd1dl2tOqRy_7p4ueB" version="20.2.6" type="github">
  <diagram id="t1NeTvVZrEcvBJN6RzQX" name="Halaman-1">
    <mxGraphModel dx="782" dy="716" grid="1" gridSize="10" guides="1" tooltips="1" connect="1" arrows="1" fold="1" page="1" pageScale="1" pageWidth="827" pageHeight="1169" math="0" shadow="0">
      <root>
        <mxCell id="0" />
        <mxCell id="1" parent="0" />
        <mxCell id="wmpTuMGO6DWe7OvzIVpt-3" value="" style="edgeStyle=orthogonalEdgeStyle;rounded=0;orthogonalLoop=1;jettySize=auto;html=1;" edge="1" parent="1" source="wmpTuMGO6DWe7OvzIVpt-1" target="wmpTuMGO6DWe7OvzIVpt-2">
          <mxGeometry relative="1" as="geometry" />
        </mxCell>
        <mxCell id="wmpTuMGO6DWe7OvzIVpt-1" value="Planning" style="rounded=1;whiteSpace=wrap;html=1;" vertex="1" parent="1">
          <mxGeometry x="50" y="230" width="80" height="40" as="geometry" />
        </mxCell>
        <mxCell id="wmpTuMGO6DWe7OvzIVpt-5" value="" style="edgeStyle=orthogonalEdgeStyle;rounded=0;orthogonalLoop=1;jettySize=auto;html=1;" edge="1" parent="1" source="wmpTuMGO6DWe7OvzIVpt-2" target="wmpTuMGO6DWe7OvzIVpt-4">
          <mxGeometry relative="1" as="geometry" />
        </mxCell>
        <mxCell id="wmpTuMGO6DWe7OvzIVpt-2" value="" style="rhombus;whiteSpace=wrap;html=1;" vertex="1" parent="1">
          <mxGeometry x="150" y="235" width="30" height="30" as="geometry" />
        </mxCell>
        <mxCell id="wmpTuMGO6DWe7OvzIVpt-9" value="" style="edgeStyle=orthogonalEdgeStyle;rounded=0;orthogonalLoop=1;jettySize=auto;html=1;" edge="1" parent="1" source="wmpTuMGO6DWe7OvzIVpt-4">
          <mxGeometry relative="1" as="geometry">
            <mxPoint x="300" y="250" as="targetPoint" />
          </mxGeometry>
        </mxCell>
        <mxCell id="wmpTuMGO6DWe7OvzIVpt-4" value="Concept Development" style="rounded=1;whiteSpace=wrap;html=1;" vertex="1" parent="1">
          <mxGeometry x="200" y="230" width="80" height="40" as="geometry" />
        </mxCell>
        <mxCell id="wmpTuMGO6DWe7OvzIVpt-8" value="System-Level Design" style="rounded=1;whiteSpace=wrap;html=1;" vertex="1" parent="1">
          <mxGeometry x="352" y="230" width="80" height="40" as="geometry" />
        </mxCell>
        <mxCell id="wmpTuMGO6DWe7OvzIVpt-11" value="" style="edgeStyle=orthogonalEdgeStyle;rounded=0;orthogonalLoop=1;jettySize=auto;html=1;" edge="1" parent="1" source="wmpTuMGO6DWe7OvzIVpt-10" target="wmpTuMGO6DWe7OvzIVpt-8">
          <mxGeometry relative="1" as="geometry" />
        </mxCell>
        <mxCell id="wmpTuMGO6DWe7OvzIVpt-10" value="" style="rhombus;whiteSpace=wrap;html=1;" vertex="1" parent="1">
          <mxGeometry x="300" y="235" width="30" height="30" as="geometry" />
        </mxCell>
        <mxCell id="wmpTuMGO6DWe7OvzIVpt-12" value="" style="rhombus;whiteSpace=wrap;html=1;" vertex="1" parent="1">
          <mxGeometry x="470" y="235" width="30" height="30" as="geometry" />
        </mxCell>
        <mxCell id="wmpTuMGO6DWe7OvzIVpt-13" value="" style="rounded=1;whiteSpace=wrap;html=1;" vertex="1" parent="1">
          <mxGeometry x="550" y="100" width="100" height="30" as="geometry" />
        </mxCell>
      </root>
    </mxGraphModel>
  </diagram>
</mxfile>
